<svg width="15" height="16" viewBox="0 0 15 16" fill="none" xmlns="http://www.w3.org/2000/svg">
<path fill-rule="evenodd" clip-rule="evenodd" d="M8.77117 14.223C8.55556 14.4386 8.25797 14.5723 7.92894 14.5711C7.27088 14.5711 6.73859 14.0389 6.73859 13.3808V2.61823C6.73859 1.96017 7.27088 1.42788 7.92894 1.42788C8.587 1.42788 9.11929 1.96017 9.11929 2.61823V13.3808C9.12041 13.7098 8.98678 14.0074 8.77117 14.223Z" fill="black"/>
<path fill-rule="evenodd" clip-rule="evenodd" d="M14.158 8.84286C13.9424 9.05847 13.6448 9.19211 13.3158 9.19098L2.54315 9.18986C1.88509 9.18986 1.3528 8.65757 1.3528 7.99951C1.35392 7.34033 1.88621 6.80804 2.54315 6.80916L13.3158 6.81029C13.9739 6.81029 14.5062 7.34257 14.5062 8.00063C14.5073 8.32967 14.3725 8.62838 14.158 8.84286Z" fill="black"/>
</svg>
