<svg width="25" height="24" viewBox="0 0 25 24" fill="none" xmlns="http://www.w3.org/2000/svg">
<path d="M10.8301 16.593H4.52942" stroke="black" stroke-width="1.5" StrokeLinecap="round" StrokeLinejoin="round"/>
<path d="M13.6405 6.90018H19.9412" stroke="black" stroke-width="1.5" StrokeLinecap="round" StrokeLinejoin="round"/>
<path fillRule="evenodd" clipRule="evenodd" d="M9.22629 6.84625C9.22629 5.5506 8.16813 4.5 6.86314 4.5C5.55816 4.5 4.5 5.5506 4.5 6.84625C4.5 8.14191 5.55816 9.19251 6.86314 9.19251C8.16813 9.19251 9.22629 8.14191 9.22629 6.84625Z" stroke="black" stroke-width="1.5" StrokeLinecap="round" StrokeLinejoin="round"/>
<path fillRule="evenodd" clipRule="evenodd" d="M20.5 16.5538C20.5 15.2581 19.4426 14.2075 18.1376 14.2075C16.8318 14.2075 15.7737 15.2581 15.7737 16.5538C15.7737 17.8494 16.8318 18.9 18.1376 18.9C19.4426 18.9 20.5 17.8494 20.5 16.5538Z" stroke="black" stroke-width="1.5" StrokeLinecap="round" StrokeLinejoin="round"/>
</svg>
